<svg xmlns="http://www.w3.org/2000/svg" xmlns:xlink="http://www.w3.org/1999/xlink" id="shortcode_x5F_icon" x="0" y="0" version="1.1" viewBox="0 0 80 80" xml:space="preserve" style="enable-background:new 0 0 80 80"><style type="text/css">.st0{fill:#404a4c}</style><g><g><path d="M25.1,50.8" class="st0"/></g><g><path d="M29,56.4h-6.6c-0.8,0-1.4-0.6-1.4-1.4V25c0-0.8,0.6-1.4,1.4-1.4H29c0.3,0,0.5,0.2,0.5,0.5s-0.2,0.5-0.5,0.5 h-6.6c-0.2,0-0.4,0.2-0.4,0.4v30.2c0,0.2,0.2,0.4,0.4,0.4H29c0.3,0,0.5,0.2,0.5,0.5C29.5,56.4,29.3,56.4,29,56.4z" class="st0"/><path d="M57.6,56.4H51c-0.3,0-0.5-0.2-0.5-0.5c0-0.3,0.2-0.5,0.5-0.5h6.6c0.2,0,0.4-0.2,0.4-0.4V25 c0-0.2-0.2-0.4-0.4-0.4H51c-0.3,0-0.5-0.2-0.5-0.5s0.2-0.5,0.5-0.5h6.6c0.8,0,1.4,0.6,1.4,1.4v30.2C59,55.8,58.4,56.4,57.6,56.4z" class="st0"/><g><path d="M34.8,53.2c-0.1,0-0.1,0-0.2,0c-0.3-0.1-0.4-0.4-0.3-0.6l10.4-28.6c0.1-0.3,0.4-0.4,0.6-0.3 c0.3,0.1,0.4,0.4,0.3,0.6L35.3,52.9C35.2,53.2,35,53.2,34.8,53.2z" class="st0"/></g></g></g></svg>