<svg xmlns="http://www.w3.org/2000/svg" xmlns:xlink="http://www.w3.org/1999/xlink" id="tabs_x5F_icon" x="0" y="0" version="1.1" viewBox="0 0 80 80" xml:space="preserve" style="enable-background:new 0 0 80 80"><style type="text/css">.st0{fill:#404a4c}</style><g><g><path d="M44.9,31.2h-1v-3.4c0-0.1-0.1-0.2-0.2-0.2h-9c-0.1,0-0.2,0.1-0.2,0.2v3.4h-1v-3.4c0-0.7,0.6-1.2,1.2-1.2h9 c0.7,0,1.2,0.6,1.2,1.2V31.2z" class="st0"/><path d="M57.5,31.2h-1v-3.4c0-0.1-0.1-0.2-0.2-0.2h-9c-0.1,0-0.2,0.1-0.2,0.2v3.4h-1v-3.4c0-0.7,0.6-1.2,1.2-1.2h9 c0.7,0,1.2,0.6,1.2,1.2V31.2z" class="st0"/><path d="M57.6,53.4H22.4c-0.8,0-1.4-0.6-1.4-1.4V27.8c0-0.7,0.6-1.2,1.2-1.2h9c0.7,0,1.2,0.6,1.2,1.2v3h25.1 c0.8,0,1.4,0.6,1.4,1.4V52C59,52.8,58.4,53.4,57.6,53.4z M22.2,27.6c-0.1,0-0.2,0.1-0.2,0.2V52c0,0.2,0.2,0.4,0.4,0.4h35.2 c0.2,0,0.4-0.2,0.4-0.4V32.2c0-0.2-0.2-0.4-0.4-0.4H31.5v-4c0-0.1-0.1-0.2-0.2-0.2H22.2z" class="st0"/></g></g></svg>